<svg xmlns="http://www.w3.org/2000/svg" xmlns:xlink="http://www.w3.org/1999/xlink" width="41" zoomAndPan="magnify" viewBox="0 0 30.75 30.750001" height="41" preserveAspectRatio="xMidYMid meet" version="1.0"><defs><clipPath id="e59a1bc72f"><path d="M 1.546875 5.726562 L 24 5.726562 L 24 13 L 1.546875 13 Z M 1.546875 5.726562 " clip-rule="nonzero"/></clipPath></defs><path fill="#a03028" d="M 9.765625 10.441406 L 6.964844 11.882812 L 6.964844 24.773438 L 9.769531 24.773438 Z M 9.765625 10.441406 " fill-opacity="1" fill-rule="evenodd"/><path fill="#a03028" d="M 11.136719 12.367188 L 11.136719 24.773438 L 13.941406 24.773438 L 13.941406 13.804688 Z M 11.136719 12.367188 " fill-opacity="1" fill-rule="evenodd"/><path fill="#a03028" d="M 18.113281 12.375 L 15.308594 13.804688 L 15.3125 24.777344 L 18.113281 24.773438 Z M 18.113281 12.375 " fill-opacity="1" fill-rule="evenodd"/><path fill="#a03028" d="M 5.59375 12.589844 L 2.792969 14.027344 L 2.796875 24.773438 L 5.601562 24.773438 Z M 5.59375 12.589844 " fill-opacity="1" fill-rule="evenodd"/><path fill="#a03028" d="M 19.480469 19 L 19.480469 24.773438 L 22.285156 24.773438 L 22.285156 20.535156 C 22.191406 20.519531 22.097656 20.5 22.003906 20.472656 C 21.050781 20.21875 20.175781 19.699219 19.480469 19 Z M 19.480469 19 " fill-opacity="1" fill-rule="evenodd"/><path fill="#a03028" d="M 23.4375 12.167969 C 23.707031 12.164062 23.976562 12.199219 24.238281 12.269531 C 25.824219 12.695312 26.769531 14.328125 26.34375 15.917969 C 25.917969 17.503906 24.285156 18.449219 22.695312 18.023438 C 21.105469 17.597656 20.164062 15.960938 20.589844 14.375 C 20.796875 13.597656 21.3125 12.9375 22.011719 12.542969 C 22.449219 12.300781 22.941406 12.171875 23.4375 12.167969 Z M 23.632812 10.617188 C 23.519531 10.613281 23.40625 10.613281 23.292969 10.617188 C 22.578125 10.644531 21.882812 10.835938 21.257812 11.1875 C 20.1875 11.78125 19.40625 12.789062 19.089844 13.972656 C 18.441406 16.390625 19.875 18.875 22.292969 19.523438 C 23.121094 19.742188 23.992188 19.722656 24.804688 19.46875 L 24.898438 19.648438 C 25.136719 20.171875 25.765625 20.308594 26.273438 20.015625 C 26.78125 19.722656 26.976562 19.109375 26.644531 18.640625 L 26.539062 18.476562 C 27.167969 17.894531 27.621094 17.144531 27.84375 16.320312 C 28.492188 13.902344 27.058594 11.417969 24.640625 10.769531 C 24.308594 10.679688 23.972656 10.628906 23.632812 10.617188 Z M 23.632812 10.617188 " fill-opacity="1" fill-rule="nonzero"/><path fill="#a03028" d="M 27.003906 19.980469 C 26.863281 20.132812 26.6875 20.269531 26.488281 20.386719 C 26.285156 20.503906 26.078125 20.585938 25.875 20.632812 L 26.925781 22.9375 C 27.210938 23.515625 27.769531 23.507812 28.160156 23.277344 C 28.554688 23.050781 28.84375 22.570312 28.484375 22.039062 Z M 27.003906 19.980469 " fill-opacity="1" fill-rule="nonzero"/><g clip-path="url(#e59a1bc72f)"><path fill="#a03028" d="M 14.621094 9.847656 C 15.105469 9.847656 15.488281 10.230469 15.488281 10.710938 C 15.488281 11.195312 15.105469 11.574219 14.621094 11.574219 C 14.140625 11.574219 13.757812 11.195312 13.757812 10.710938 C 13.757812 10.230469 14.140625 9.847656 14.621094 9.847656 Z M 3.464844 9.847656 C 3.949219 9.847656 4.332031 10.230469 4.332031 10.710938 C 4.332031 11.195312 3.949219 11.574219 3.464844 11.574219 C 2.984375 11.574219 2.601562 11.195312 2.601562 10.710938 C 2.601562 10.230469 2.984375 9.847656 3.464844 9.847656 Z M 21.613281 6.6875 C 22.09375 6.6875 22.476562 7.070312 22.476562 7.550781 C 22.476562 8.03125 22.09375 8.414062 21.613281 8.414062 C 21.128906 8.414062 20.746094 8.035156 20.746094 7.550781 C 20.746094 7.070312 21.128906 6.6875 21.613281 6.6875 Z M 9.515625 6.6875 C 10 6.6875 10.378906 7.070312 10.378906 7.550781 C 10.378906 8.03125 10 8.414062 9.515625 8.414062 C 9.03125 8.414062 8.652344 8.035156 8.652344 7.550781 C 8.652344 7.070312 9.03125 6.6875 9.515625 6.6875 Z M 9.515625 5.742188 C 8.523438 5.742188 7.703125 6.554688 7.703125 7.550781 C 7.703125 7.613281 7.714844 7.671875 7.71875 7.730469 L 4.613281 9.328125 C 4.300781 9.066406 3.902344 8.902344 3.464844 8.902344 C 2.472656 8.902344 1.65625 9.71875 1.65625 10.710938 C 1.65625 11.707031 2.472656 12.523438 3.464844 12.523438 C 4.460938 12.523438 5.273438 11.703125 5.273438 10.710938 C 5.273438 10.5 5.230469 10.300781 5.164062 10.109375 L 8.0625 8.617188 C 8.394531 9.066406 8.921875 9.363281 9.515625 9.363281 C 10.109375 9.363281 10.640625 9.0625 10.96875 8.613281 L 13.039062 9.859375 C 12.902344 10.117188 12.8125 10.402344 12.8125 10.710938 C 12.8125 11.707031 13.628906 12.523438 14.621094 12.523438 C 15.617188 12.523438 16.433594 11.703125 16.433594 10.710938 C 16.433594 10.679688 16.425781 10.648438 16.425781 10.617188 L 20.203125 8.671875 C 20.539062 9.089844 21.042969 9.363281 21.613281 9.363281 C 22.605469 9.363281 23.421875 8.546875 23.421875 7.550781 C 23.421875 6.554688 22.605469 5.742188 21.613281 5.742188 C 20.617188 5.742188 19.800781 6.554688 19.800781 7.550781 C 19.800781 7.636719 19.820312 7.71875 19.832031 7.804688 L 16.128906 9.710938 C 15.800781 9.226562 15.246094 8.902344 14.621094 8.902344 C 14.289062 8.902344 13.976562 9 13.707031 9.160156 L 11.308594 7.710938 C 11.3125 7.65625 11.324219 7.605469 11.324219 7.550781 C 11.324219 6.554688 10.507812 5.742188 9.515625 5.742188 Z M 9.515625 5.742188 " fill-opacity="1" fill-rule="evenodd"/></g></svg>