<svg xmlns="http://www.w3.org/2000/svg" xmlns:xlink="http://www.w3.org/1999/xlink" width="41" zoomAndPan="magnify" viewBox="0 0 30.75 30.750001" height="41" preserveAspectRatio="xMidYMid meet" version="1.0"><defs><clipPath id="c5966873f5"><path d="M 1.125 1.265625 L 28.652344 1.265625 L 28.652344 29.535156 L 1.125 29.535156 Z M 1.125 1.265625 " clip-rule="nonzero"/></clipPath></defs><g clip-path="url(#c5966873f5)"><path fill="#a03028" d="M 1.226562 15.507812 C 1.148438 17.140625 2.308594 18.695312 4.476562 19.910156 C 4.363281 20.328125 4.273438 20.742188 4.210938 21.160156 C 3.601562 21.25 3.132812 21.773438 3.132812 22.410156 C 3.132812 23.078125 3.652344 23.617188 4.308594 23.667969 C 4.65625 24.980469 5.433594 25.828125 6.628906 26.175781 C 7.035156 26.292969 7.476562 26.351562 7.949219 26.351562 C 8.730469 26.351562 9.589844 26.195312 10.492188 25.917969 C 11.417969 27.605469 12.839844 29.199219 14.769531 29.199219 C 15.265625 29.199219 15.753906 29.078125 16.230469 28.855469 C 16.457031 29.066406 16.757812 29.199219 17.089844 29.199219 C 17.789062 29.199219 18.359375 28.628906 18.359375 27.929688 C 18.359375 27.675781 18.285156 27.441406 18.15625 27.246094 C 18.472656 26.847656 18.761719 26.414062 19.023438 25.945312 C 19.824219 26.171875 20.613281 26.300781 21.375 26.300781 C 21.394531 26.300781 21.410156 26.300781 21.429688 26.300781 C 21.621094 26.757812 22.074219 27.074219 22.597656 27.074219 C 23.296875 27.074219 23.867188 26.507812 23.867188 25.804688 C 23.867188 25.746094 23.859375 25.691406 23.851562 25.632812 C 24.746094 25.046875 25.28125 24.179688 25.425781 23.039062 C 25.546875 22.101562 25.402344 21.03125 25.058594 19.910156 C 27.277344 18.667969 28.441406 17.066406 28.296875 15.378906 C 28.160156 13.847656 27.007812 12.460938 25.0625 11.382812 C 25.277344 10.617188 25.402344 9.859375 25.410156 9.132812 C 25.90625 8.960938 26.265625 8.492188 26.265625 7.9375 C 26.265625 7.238281 25.695312 6.667969 24.996094 6.667969 C 24.933594 6.667969 24.878906 6.675781 24.820312 6.683594 C 24.285156 5.800781 23.492188 5.25 22.445312 5.046875 C 21.449219 4.855469 20.273438 5 19.039062 5.375 C 18.226562 3.871094 17.167969 2.722656 15.828125 2.289062 C 15.710938 1.707031 15.195312 1.265625 14.582031 1.265625 C 13.914062 1.265625 13.371094 1.785156 13.320312 2.4375 C 12.160156 2.96875 11.222656 4.03125 10.484375 5.375 C 8.386719 4.742188 6.460938 4.808594 5.191406 6.074219 C 3.855469 7.414062 3.820312 9.351562 4.453125 11.410156 C 2.429688 12.539062 1.300781 13.964844 1.226562 15.507812 Z M 6.789062 25.632812 C 5.816406 25.351562 5.175781 24.660156 4.871094 23.589844 C 5.335938 23.398438 5.671875 22.945312 5.671875 22.410156 C 5.671875 21.839844 5.292969 21.363281 4.777344 21.199219 C 4.828125 20.863281 4.898438 20.527344 4.992188 20.183594 C 6.140625 20.753906 7.464844 21.210938 8.894531 21.535156 C 9.226562 22.980469 9.675781 24.300781 10.234375 25.429688 C 8.941406 25.808594 7.75 25.917969 6.789062 25.632812 Z M 8.296875 17.265625 C 7.898438 16.738281 7.511719 16.191406 7.148438 15.632812 C 7.503906 15.089844 7.890625 14.550781 8.296875 14.023438 C 8.234375 15.113281 8.234375 16.199219 8.296875 17.265625 Z M 6.808594 15.097656 C 6.109375 13.960938 5.527344 12.800781 5.140625 11.683594 C 5.359375 11.570312 5.589844 11.460938 5.832031 11.359375 C 6.0625 11.644531 6.414062 11.839844 6.816406 11.839844 C 7.515625 11.839844 8.085938 11.269531 8.085938 10.566406 L 8.085938 10.558594 C 8.300781 10.496094 8.523438 10.441406 8.757812 10.386719 C 8.578125 11.28125 8.449219 12.171875 8.375 13.015625 C 7.824219 13.679688 7.292969 14.378906 6.808594 15.097656 Z M 6.820312 16.140625 C 7.320312 16.894531 7.851562 17.605469 8.375 18.257812 C 8.460938 19.167969 8.589844 20.0625 8.761719 20.914062 C 7.429688 20.59375 6.203125 20.167969 5.152344 19.632812 C 5.53125 18.476562 6.109375 17.292969 6.820312 16.140625 Z M 12.339844 9.808594 C 13.925781 9.671875 15.550781 9.667969 17.136719 9.804688 C 18.414062 10.832031 19.496094 11.886719 20.597656 13.242188 C 20.753906 14.828125 20.765625 16.335938 20.609375 18.074219 C 19.453125 19.460938 18.351562 20.527344 17.167969 21.496094 C 15.570312 21.632812 13.925781 21.628906 12.339844 21.488281 C 11.003906 20.375 9.929688 19.277344 8.933594 18.066406 C 8.789062 16.492188 8.777344 14.859375 8.917969 13.253906 C 10 11.960938 11.183594 10.78125 12.339844 9.808594 Z M 9.027344 12.257812 C 9.109375 11.636719 9.222656 10.953125 9.375 10.246094 C 10.019531 10.109375 10.683594 10 11.363281 9.910156 C 10.59375 10.601562 9.796875 11.394531 9.027344 12.257812 Z M 13.117188 9.1875 C 13.625 8.800781 14.164062 8.417969 14.722656 8.058594 C 15.28125 8.417969 15.824219 8.796875 16.335938 9.183594 C 15.269531 9.125 14.1875 9.125 13.117188 9.1875 Z M 18.15625 9.910156 C 18.835938 9.996094 19.5 10.105469 20.148438 10.242188 C 20.285156 10.90625 20.394531 11.574219 20.480469 12.226562 C 19.753906 11.398438 19.0625 10.699219 18.15625 9.910156 Z M 20.503906 19.066406 C 20.417969 19.730469 20.308594 20.398438 20.167969 21.0625 C 19.515625 21.199219 18.84375 21.3125 18.164062 21.394531 C 19.0625 20.609375 19.714844 19.953125 20.503906 19.066406 Z M 16.363281 22.132812 C 15.832031 22.53125 15.289062 22.914062 14.734375 23.265625 C 14.1875 22.90625 13.652344 22.523438 13.140625 22.128906 C 14.226562 22.195312 15.277344 22.195312 16.363281 22.132812 Z M 11.347656 21.382812 C 10.675781 21.296875 10.019531 21.1875 9.382812 21.054688 C 9.246094 20.40625 9.128906 19.742188 9.042969 19.058594 C 9.769531 19.898438 10.410156 20.550781 11.347656 21.382812 Z M 9.523438 21.671875 C 10.367188 21.839844 11.246094 21.972656 12.140625 22.054688 C 12.789062 22.589844 13.488281 23.109375 14.210938 23.59375 C 13.058594 24.289062 11.894531 24.863281 10.785156 25.246094 C 10.269531 24.21875 9.847656 23.003906 9.523438 21.671875 Z M 17.75 26.847656 C 17.558594 26.730469 17.332031 26.65625 17.089844 26.65625 C 16.390625 26.65625 15.820312 27.226562 15.820312 27.929688 C 15.820312 28.089844 15.855469 28.242188 15.910156 28.382812 C 15.535156 28.546875 15.152344 28.632812 14.769531 28.632812 C 13.109375 28.632812 11.847656 27.191406 11.039062 25.734375 C 12.238281 25.308594 13.496094 24.683594 14.71875 23.929688 C 15.9375 24.699219 17.210938 25.351562 18.472656 25.773438 C 18.253906 26.160156 18.011719 26.515625 17.75 26.847656 Z M 18.75 25.277344 C 17.582031 24.894531 16.390625 24.300781 15.246094 23.597656 C 15.976562 23.121094 16.691406 22.601562 17.371094 22.058594 C 18.273438 21.972656 19.167969 21.84375 20.035156 21.667969 C 19.726562 22.953125 19.304688 24.191406 18.75 25.277344 Z M 24.867188 22.96875 C 24.746094 23.890625 24.335938 24.601562 23.648438 25.09375 C 23.417969 24.757812 23.035156 24.535156 22.597656 24.535156 C 21.925781 24.535156 21.375 25.070312 21.335938 25.734375 C 20.675781 25.734375 19.992188 25.625 19.292969 25.4375 C 19.882812 24.257812 20.324219 22.917969 20.636719 21.535156 C 20.945312 21.464844 21.246094 21.386719 21.546875 21.304688 C 21.773438 21.644531 22.160156 21.867188 22.597656 21.867188 C 23.320312 21.867188 23.921875 21.253906 23.859375 20.5 C 24.097656 20.394531 24.328125 20.285156 24.546875 20.175781 C 24.847656 21.1875 24.976562 22.140625 24.867188 22.96875 Z M 21.347656 20.773438 C 21.15625 20.828125 20.964844 20.878906 20.769531 20.925781 C 20.945312 20.046875 21.070312 19.164062 21.152344 18.300781 C 21.691406 17.640625 22.21875 16.941406 22.707031 16.210938 C 23.40625 17.355469 23.984375 18.523438 24.375 19.636719 C 24.15625 19.746094 23.925781 19.851562 23.6875 19.957031 C 23.46875 19.582031 23.0625 19.328125 22.597656 19.328125 C 21.855469 19.328125 21.230469 19.980469 21.347656 20.773438 Z M 21.226562 14.039062 C 21.632812 14.574219 22.019531 15.125 22.382812 15.6875 C 22.019531 16.238281 21.632812 16.777344 21.234375 17.296875 C 21.308594 16.027344 21.300781 15.097656 21.226562 14.039062 Z M 21.140625 13.003906 C 21.050781 12.152344 20.917969 11.261719 20.734375 10.375 C 22.136719 10.710938 23.367188 11.152344 24.386719 11.671875 C 24.007812 12.835938 23.421875 14.023438 22.71875 15.15625 C 22.230469 14.414062 21.699219 13.691406 21.140625 13.003906 Z M 27.730469 15.429688 C 27.859375 16.859375 26.835938 18.253906 24.882812 19.363281 C 24.457031 18.15625 23.816406 16.898438 23.054688 15.679688 C 23.820312 14.472656 24.464844 13.199219 24.890625 11.941406 C 26.589844 12.917969 27.617188 14.132812 27.730469 15.429688 Z M 22.339844 5.601562 C 23.183594 5.765625 23.835938 6.195312 24.285156 6.886719 C 23.949219 7.117188 23.722656 7.5 23.722656 7.9375 C 23.722656 8.585938 24.214844 9.117188 24.84375 9.191406 C 24.832031 9.816406 24.730469 10.460938 24.554688 11.117188 C 23.449219 10.566406 22.121094 10.109375 20.605469 9.765625 C 20.289062 8.390625 19.859375 7.046875 19.292969 5.875 C 20.402344 5.550781 21.453125 5.429688 22.339844 5.601562 Z M 20.011719 9.640625 C 19.160156 9.46875 18.28125 9.34375 17.382812 9.257812 C 16.714844 8.722656 16.003906 8.203125 15.269531 7.722656 C 16.414062 7.03125 17.617188 6.433594 18.773438 6.039062 C 19.300781 7.113281 19.707031 8.355469 20.011719 9.640625 Z M 13.40625 3.019531 C 13.601562 3.480469 14.050781 3.804688 14.582031 3.804688 C 15.164062 3.804688 15.652344 3.410156 15.796875 2.875 C 16.914062 3.289062 17.808594 4.265625 18.519531 5.546875 C 17.261719 5.984375 15.960938 6.632812 14.746094 7.382812 C 13.527344 6.625 12.257812 5.980469 11.035156 5.550781 C 11.660156 4.429688 12.441406 3.511719 13.40625 3.019531 Z M 10.773438 6.054688 C 11.902344 6.453125 13.074219 7.042969 14.199219 7.730469 C 13.453125 8.21875 12.75 8.738281 12.117188 9.261719 C 11.222656 9.347656 10.351562 9.472656 9.515625 9.640625 C 9.808594 8.417969 10.226562 7.160156 10.773438 6.054688 Z M 5.589844 6.476562 C 6.691406 5.375 8.375 5.332031 10.21875 5.878906 C 9.640625 7.058594 9.199219 8.40625 8.890625 9.773438 C 8.554688 9.847656 8.246094 9.925781 7.953125 10.007812 C 7.746094 9.589844 7.316406 9.296875 6.816406 9.296875 C 6.117188 9.296875 5.546875 9.867188 5.546875 10.566406 C 5.546875 10.664062 5.5625 10.761719 5.582031 10.851562 C 5.367188 10.945312 5.164062 11.039062 4.964844 11.136719 C 4.421875 9.269531 4.484375 7.578125 5.589844 6.476562 Z M 4.636719 11.957031 C 5.074219 13.179688 5.730469 14.429688 6.476562 15.605469 C 5.703125 16.820312 5.0625 18.085938 4.644531 19.359375 C 2.738281 18.261719 1.726562 16.914062 1.789062 15.539062 C 1.851562 14.238281 2.867188 12.976562 4.636719 11.957031 Z M 4.636719 11.957031 " fill-opacity="1" fill-rule="nonzero"/></g><path fill="#a03028" d="M 20.464844 3.933594 C 20.273438 3.953125 20.082031 3.980469 19.886719 4.015625 L 19.984375 4.570312 C 20.167969 4.539062 20.347656 4.515625 20.527344 4.496094 Z M 20.464844 3.933594 " fill-opacity="1" fill-rule="nonzero"/><path fill="#a03028" d="M 21.632812 3.886719 C 21.441406 3.878906 21.246094 3.878906 21.046875 3.890625 L 21.070312 4.453125 C 21.253906 4.445312 21.433594 4.445312 21.613281 4.449219 Z M 21.632812 3.886719 " fill-opacity="1" fill-rule="nonzero"/><path fill="#a03028" d="M 23.375 4.191406 L 23.191406 4.726562 C 23.363281 4.78125 23.527344 4.851562 23.683594 4.925781 L 23.929688 4.417969 C 23.753906 4.332031 23.566406 4.257812 23.375 4.191406 Z M 23.375 4.191406 " fill-opacity="1" fill-rule="nonzero"/><path fill="#a03028" d="M 22.800781 4.03125 C 22.613281 3.988281 22.417969 3.953125 22.21875 3.929688 L 22.148438 4.492188 C 22.332031 4.511719 22.507812 4.542969 22.679688 4.582031 Z M 22.800781 4.03125 " fill-opacity="1" fill-rule="nonzero"/><path fill="#a03028" d="M 24.929688 5.078125 C 24.777344 4.949219 24.617188 4.824219 24.449219 4.714844 L 24.140625 5.1875 C 24.285156 5.28125 24.425781 5.390625 24.558594 5.503906 Z M 24.929688 5.078125 " fill-opacity="1" fill-rule="nonzero"/><path fill="#a03028" d="M 7.570312 27.402344 C 7.757812 27.417969 7.957031 27.429688 8.15625 27.429688 L 8.15625 26.863281 C 7.972656 26.863281 7.789062 26.855469 7.617188 26.839844 Z M 7.570312 27.402344 " fill-opacity="1" fill-rule="nonzero"/><path fill="#a03028" d="M 6.40625 27.195312 C 6.589844 27.25 6.785156 27.292969 6.984375 27.328125 L 7.082031 26.773438 C 6.902344 26.742188 6.726562 26.699219 6.5625 26.652344 Z M 6.40625 27.195312 " fill-opacity="1" fill-rule="nonzero"/><path fill="#a03028" d="M 4.394531 26.03125 C 4.523438 26.160156 4.664062 26.28125 4.804688 26.394531 L 5.152344 25.949219 C 5.027344 25.851562 4.90625 25.746094 4.792969 25.632812 Z M 4.394531 26.03125 " fill-opacity="1" fill-rule="nonzero"/><path fill="#a03028" d="M 5.84375 26.996094 L 6.058594 26.476562 C 5.898438 26.40625 5.738281 26.328125 5.585938 26.242188 L 5.304688 26.730469 C 5.476562 26.828125 5.65625 26.917969 5.84375 26.996094 Z M 5.84375 26.996094 " fill-opacity="1" fill-rule="nonzero"/><path fill="#a03028" d="M 3.054688 9.800781 C 3.074219 9.992188 3.097656 10.183594 3.128906 10.378906 L 3.683594 10.289062 C 3.65625 10.105469 3.632812 9.925781 3.617188 9.746094 Z M 3.054688 9.800781 " fill-opacity="1" fill-rule="nonzero"/><path fill="#a03028" d="M 3.367188 6.894531 L 3.898438 7.089844 C 3.960938 6.921875 4.03125 6.757812 4.109375 6.605469 L 3.609375 6.34375 C 3.519531 6.519531 3.4375 6.703125 3.367188 6.894531 Z M 3.367188 6.894531 " fill-opacity="1" fill-rule="nonzero"/><path fill="#a03028" d="M 4.71875 5.753906 L 4.308594 5.363281 C 4.171875 5.511719 4.042969 5.667969 3.925781 5.832031 L 4.386719 6.160156 C 4.484375 6.015625 4.597656 5.878906 4.71875 5.753906 Z M 4.71875 5.753906 " fill-opacity="1" fill-rule="nonzero"/><path fill="#a03028" d="M 3.082031 8.046875 L 3.640625 8.125 C 3.664062 7.945312 3.699219 7.765625 3.742188 7.597656 L 3.195312 7.464844 C 3.148438 7.652344 3.109375 7.847656 3.082031 8.046875 Z M 3.082031 8.046875 " fill-opacity="1" fill-rule="nonzero"/><path fill="#a03028" d="M 3.015625 9.011719 C 3.015625 9.082031 3.015625 9.148438 3.019531 9.21875 L 3.582031 9.203125 C 3.582031 9.136719 3.582031 9.074219 3.582031 9.011719 C 3.582031 8.894531 3.582031 8.777344 3.589844 8.660156 L 3.027344 8.632812 C 3.019531 8.757812 3.015625 8.882812 3.015625 9.011719 Z M 3.015625 9.011719 " fill-opacity="1" fill-rule="nonzero"/><path fill="#a03028" d="M 26.546875 22.273438 C 26.546875 22.171875 26.542969 22.070312 26.539062 21.964844 L 25.976562 21.988281 C 25.980469 22.085938 25.980469 22.179688 25.980469 22.273438 C 25.980469 22.359375 25.980469 22.445312 25.976562 22.527344 L 26.539062 22.550781 C 26.542969 22.460938 26.546875 22.367188 26.546875 22.273438 Z M 26.546875 22.273438 " fill-opacity="1" fill-rule="nonzero"/><path fill="#a03028" d="M 26.496094 21.382812 C 26.476562 21.195312 26.449219 21 26.414062 20.804688 L 25.859375 20.902344 C 25.890625 21.085938 25.914062 21.265625 25.933594 21.441406 Z M 26.496094 21.382812 " fill-opacity="1" fill-rule="nonzero"/><path fill="#a03028" d="M 26.222656 24.292969 L 25.691406 24.105469 C 25.632812 24.273438 25.5625 24.4375 25.488281 24.59375 L 25.992188 24.84375 C 26.078125 24.667969 26.15625 24.484375 26.222656 24.292969 Z M 26.222656 24.292969 " fill-opacity="1" fill-rule="nonzero"/><path fill="#a03028" d="M 24.902344 25.464844 L 25.320312 25.839844 C 25.457031 25.691406 25.578125 25.53125 25.691406 25.363281 L 25.222656 25.050781 C 25.125 25.195312 25.015625 25.335938 24.902344 25.464844 Z M 24.902344 25.464844 " fill-opacity="1" fill-rule="nonzero"/><path fill="#a03028" d="M 26.492188 23.136719 L 25.933594 23.066406 C 25.910156 23.246094 25.878906 23.421875 25.839844 23.59375 L 26.390625 23.71875 C 26.433594 23.53125 26.46875 23.335938 26.492188 23.136719 Z M 26.492188 23.136719 " fill-opacity="1" fill-rule="nonzero"/><path fill="#a03028" d="M 18.445312 12.226562 C 18.445312 12.394531 18.355469 12.550781 18.175781 12.703125 C 17.996094 12.855469 17.742188 12.988281 17.410156 13.105469 C 17.078125 13.21875 16.695312 13.308594 16.257812 13.371094 C 15.824219 13.433594 15.375 13.464844 14.902344 13.464844 C 14.433594 13.464844 13.980469 13.433594 13.546875 13.371094 C 13.113281 13.308594 12.730469 13.21875 12.398438 13.105469 C 12.066406 12.988281 11.8125 12.855469 11.632812 12.703125 C 11.453125 12.550781 11.363281 12.394531 11.363281 12.226562 C 11.363281 12.0625 11.453125 11.90625 11.632812 11.753906 C 11.8125 11.601562 12.066406 11.46875 12.398438 11.351562 C 12.730469 11.238281 13.113281 11.148438 13.546875 11.085938 C 13.980469 11.023438 14.433594 10.988281 14.902344 10.988281 C 15.375 10.988281 15.824219 11.023438 16.257812 11.085938 C 16.695312 11.148438 17.078125 11.238281 17.410156 11.351562 C 17.742188 11.46875 17.996094 11.601562 18.175781 11.753906 C 18.355469 11.90625 18.445312 12.0625 18.445312 12.226562 Z M 18.445312 12.226562 " fill-opacity="1" fill-rule="nonzero"/><path fill="#a03028" d="M 14.902344 19.546875 C 16.859375 19.546875 18.445312 18.996094 18.445312 18.308594 L 18.445312 15.832031 C 18.445312 16.519531 16.859375 17.070312 14.902344 17.070312 C 12.949219 17.070312 11.363281 16.519531 11.363281 15.832031 L 11.363281 18.308594 C 11.363281 18.996094 12.949219 19.546875 14.902344 19.546875 Z M 16.414062 17.875 L 16.828125 17.875 L 16.828125 18.4375 L 16.414062 18.4375 Z M 15.292969 17.875 L 15.710938 17.875 L 15.710938 18.4375 L 15.292969 18.4375 Z M 14.097656 17.875 L 14.511719 17.875 L 14.511719 18.4375 L 14.097656 18.4375 Z M 12.980469 17.875 L 13.394531 17.875 L 13.394531 18.4375 L 12.980469 18.4375 Z M 12.980469 17.875 " fill-opacity="1" fill-rule="nonzero"/><path fill="#a03028" d="M 14.902344 16.507812 C 16.859375 16.507812 18.445312 15.953125 18.445312 15.269531 L 18.445312 12.792969 C 18.445312 13.476562 16.859375 14.03125 14.902344 14.03125 C 12.949219 14.03125 11.363281 13.476562 11.363281 12.792969 L 11.363281 15.269531 C 11.363281 15.953125 12.949219 16.507812 14.902344 16.507812 Z M 16.414062 14.832031 L 16.828125 14.832031 L 16.828125 15.398438 L 16.414062 15.398438 Z M 15.292969 14.832031 L 15.710938 14.832031 L 15.710938 15.398438 L 15.292969 15.398438 Z M 14.097656 14.832031 L 14.511719 14.832031 L 14.511719 15.398438 L 14.097656 15.398438 Z M 12.980469 14.832031 L 13.394531 14.832031 L 13.394531 15.398438 L 12.980469 15.398438 Z M 12.980469 14.832031 " fill-opacity="1" fill-rule="nonzero"/></svg>