<svg xmlns="http://www.w3.org/2000/svg" xmlns:xlink="http://www.w3.org/1999/xlink" width="41" zoomAndPan="magnify" viewBox="0 0 30.75 30.750001" height="41" preserveAspectRatio="xMidYMid meet" version="1.0"><defs><clipPath id="b4c5a0e22d"><path d="M 4.734375 3.050781 L 25.566406 3.050781 L 25.566406 28.34375 L 4.734375 28.34375 Z M 4.734375 3.050781 " clip-rule="nonzero"/></clipPath></defs><g clip-path="url(#b4c5a0e22d)"><path fill="#a03028" d="M 15.25 3.050781 C 9.355469 3.050781 4.738281 5.128906 4.738281 7.78125 L 4.738281 23.546875 C 4.738281 26.195312 9.355469 28.273438 15.25 28.273438 C 21.140625 28.273438 25.757812 26.195312 25.757812 23.546875 L 25.757812 7.78125 C 25.757812 5.128906 21.140625 3.050781 15.25 3.050781 Z M 24.707031 18.289062 C 24.707031 20.03125 20.824219 21.96875 15.25 21.96875 C 9.675781 21.96875 5.789062 20.03125 5.789062 18.289062 L 5.789062 15.117188 C 7.476562 16.695312 11.03125 17.765625 15.25 17.765625 C 19.46875 17.765625 23.023438 16.695312 24.707031 15.117188 Z M 24.707031 13.035156 C 24.707031 14.773438 20.824219 16.714844 15.25 16.714844 C 9.675781 16.714844 5.789062 14.773438 5.789062 13.035156 L 5.789062 9.863281 C 7.476562 11.441406 11.03125 12.507812 15.25 12.507812 C 19.46875 12.507812 23.023438 11.441406 24.707031 9.863281 Z M 15.25 4.101562 C 20.824219 4.101562 24.707031 6.039062 24.707031 7.78125 C 24.707031 9.519531 20.824219 11.457031 15.25 11.457031 C 9.675781 11.457031 5.789062 9.519531 5.789062 7.78125 C 5.789062 6.039062 9.675781 4.101562 15.25 4.101562 Z M 15.25 27.222656 C 9.675781 27.222656 5.789062 25.285156 5.789062 23.546875 L 5.789062 20.375 C 7.476562 21.953125 11.03125 23.019531 15.25 23.019531 C 19.46875 23.019531 23.023438 21.953125 24.707031 20.375 L 24.707031 23.546875 C 24.707031 25.285156 20.824219 27.222656 15.25 27.222656 Z M 15.25 27.222656 " fill-opacity="1" fill-rule="nonzero"/></g></svg>