<svg xmlns="http://www.w3.org/2000/svg" xmlns:xlink="http://www.w3.org/1999/xlink" width="41" zoomAndPan="magnify" viewBox="0 0 30.75 30.750001" height="41" preserveAspectRatio="xMidYMid meet" version="1.0"><defs><clipPath id="0c96d2377a"><path d="M 4.574219 2.316406 L 26.890625 2.316406 L 26.890625 29.097656 L 4.574219 29.097656 Z M 4.574219 2.316406 " clip-rule="nonzero"/></clipPath></defs><g clip-path="url(#0c96d2377a)"><path fill="#a03028" d="M 19.496094 20.816406 C 19.308594 20.816406 19.160156 20.667969 19.160156 20.484375 C 19.160156 20.296875 19.308594 20.148438 19.496094 20.148438 L 23.390625 20.148438 C 23.574219 20.148438 23.726562 20.296875 23.726562 20.484375 C 23.726562 20.667969 23.574219 20.816406 23.390625 20.816406 Z M 20.1875 10.378906 L 19.984375 10.03125 C 20.417969 9.695312 20.710938 9.234375 20.847656 8.734375 C 21.007812 8.128906 20.941406 7.464844 20.601562 6.878906 C 20.265625 6.292969 19.722656 5.898438 19.117188 5.738281 C 18.617188 5.601562 18.070312 5.628906 17.5625 5.835938 L 16.066406 3.242188 C 15.9375 3.015625 15.726562 2.867188 15.496094 2.804688 C 15.261719 2.742188 15.007812 2.769531 14.78125 2.898438 C 14.558594 3.027344 14.40625 3.238281 14.34375 3.46875 C 14.285156 3.699219 14.308594 3.957031 14.4375 4.179688 L 14.902344 4.980469 C 14.484375 5.824219 14.042969 6.484375 13.492188 7.058594 C 12.90625 7.671875 12.1875 8.199219 11.226562 8.753906 L 11.210938 8.761719 L 8.410156 10.378906 L 6.117188 10.378906 C 5.691406 10.378906 5.308594 10.554688 5.03125 10.832031 C 4.753906 11.109375 4.578125 11.492188 4.578125 11.917969 L 4.578125 23.324219 C 4.578125 23.746094 4.753906 24.128906 5.03125 24.40625 L 5.03125 24.410156 C 5.308594 24.6875 5.695312 24.859375 6.117188 24.859375 L 12.859375 24.859375 L 12.027344 26.640625 L 11.136719 26.640625 C 10.796875 26.640625 10.484375 26.78125 10.261719 27.003906 C 10.039062 27.226562 9.898438 27.539062 9.898438 27.878906 L 9.898438 28.777344 C 9.898438 28.964844 10.050781 29.113281 10.234375 29.113281 L 20.90625 29.113281 C 21.09375 29.113281 21.242188 28.964844 21.242188 28.777344 L 21.242188 27.878906 C 21.242188 27.539062 21.105469 27.226562 20.878906 27.003906 C 20.65625 26.78125 20.347656 26.640625 20.007812 26.640625 L 19.117188 26.640625 L 18.28125 24.859375 L 25.027344 24.859375 C 25.449219 24.859375 25.832031 24.6875 26.113281 24.410156 C 26.390625 24.128906 26.5625 23.746094 26.5625 23.324219 L 26.5625 11.917969 C 26.5625 11.496094 26.390625 11.113281 26.113281 10.832031 L 26.109375 10.832031 C 25.832031 10.554688 25.449219 10.378906 25.027344 10.378906 Z M 7.742188 11.050781 L 6.117188 11.050781 C 5.878906 11.050781 5.660156 11.148438 5.503906 11.304688 C 5.347656 11.460938 5.25 11.679688 5.25 11.917969 L 5.25 23.324219 C 5.25 23.5625 5.347656 23.777344 5.503906 23.933594 C 5.660156 24.09375 5.878906 24.1875 6.117188 24.1875 L 25.027344 24.1875 C 25.265625 24.1875 25.480469 24.089844 25.636719 23.933594 C 25.796875 23.777344 25.890625 23.5625 25.890625 23.324219 L 25.890625 11.917969 C 25.890625 11.679688 25.796875 11.460938 25.640625 11.304688 L 25.636719 11.304688 C 25.480469 11.148438 25.265625 11.050781 25.027344 11.050781 L 20.574219 11.050781 L 20.753906 11.359375 L 24.691406 11.359375 C 24.9375 11.359375 25.160156 11.460938 25.324219 11.621094 C 25.332031 11.628906 25.335938 11.636719 25.34375 11.644531 C 25.492188 11.804688 25.585938 12.015625 25.585938 12.25 L 25.585938 21.761719 C 25.585938 22.007812 25.484375 22.230469 25.324219 22.390625 L 25.320312 22.390625 L 25.324219 22.394531 C 25.160156 22.554688 24.9375 22.652344 24.691406 22.652344 L 6.449219 22.652344 C 6.203125 22.652344 5.980469 22.554688 5.820312 22.394531 C 5.65625 22.230469 5.558594 22.007812 5.558594 21.761719 L 5.558594 12.25 C 5.558594 12.007812 5.65625 11.785156 5.820312 11.621094 C 5.980469 11.460938 6.203125 11.359375 6.449219 11.359375 L 7.757812 11.359375 C 7.726562 11.257812 7.722656 11.152344 7.742188 11.050781 Z M 20.289062 11.890625 L 20.90625 12.957031 C 20.941406 13.023438 20.949219 13.097656 20.929688 13.164062 C 20.914062 13.230469 20.871094 13.292969 20.804688 13.328125 L 20.800781 13.332031 C 20.738281 13.367188 20.667969 13.371094 20.601562 13.355469 C 20.53125 13.335938 20.472656 13.292969 20.4375 13.230469 L 19.894531 12.292969 C 19.890625 12.28125 19.882812 12.273438 19.878906 12.261719 L 15.019531 3.84375 C 14.980469 3.78125 14.972656 3.707031 14.992188 3.640625 C 15.011719 3.574219 15.050781 3.511719 15.113281 3.476562 L 15.117188 3.476562 C 15.179688 3.4375 15.253906 3.433594 15.324219 3.449219 C 15.390625 3.46875 15.449219 3.511719 15.488281 3.574219 L 20.253906 11.832031 C 20.265625 11.851562 20.273438 11.871094 20.289062 11.890625 Z M 8.589844 11.507812 L 8.402344 11.183594 C 8.398438 11.179688 8.398438 11.171875 8.402344 11.164062 C 8.402344 11.160156 8.40625 11.152344 8.414062 11.148438 L 11.015625 9.644531 L 13.410156 13.796875 L 10.808594 15.300781 C 10.804688 15.300781 10.796875 15.300781 10.789062 15.300781 C 10.78125 15.300781 10.777344 15.292969 10.773438 15.289062 L 8.613281 11.546875 C 8.605469 11.535156 8.597656 11.519531 8.589844 11.507812 Z M 7.859375 12.03125 L 6.449219 12.03125 C 6.390625 12.03125 6.332031 12.054688 6.292969 12.09375 C 6.253906 12.132812 6.226562 12.191406 6.226562 12.25 L 6.226562 21.761719 C 6.226562 21.824219 6.253906 21.878906 6.292969 21.917969 C 6.332031 21.957031 6.390625 21.984375 6.449219 21.984375 L 24.691406 21.984375 C 24.753906 21.984375 24.808594 21.957031 24.847656 21.917969 L 24.851562 21.917969 C 24.890625 21.878906 24.914062 21.824219 24.914062 21.761719 L 24.914062 12.25 C 24.914062 12.195312 24.894531 12.144531 24.859375 12.105469 L 24.847656 12.09375 C 24.808594 12.054688 24.753906 12.03125 24.691406 12.03125 L 21.140625 12.03125 L 21.484375 12.625 C 21.613281 12.851562 21.640625 13.105469 21.578125 13.335938 C 21.515625 13.570312 21.363281 13.777344 21.140625 13.90625 C 20.914062 14.035156 20.660156 14.0625 20.425781 14 C 20.195312 13.9375 19.988281 13.789062 19.855469 13.5625 L 19.394531 12.765625 C 18.453125 12.703125 17.664062 12.753906 16.890625 12.941406 C 16.066406 13.144531 15.25 13.503906 14.289062 14.058594 L 13.46875 14.535156 L 15.589844 17.644531 C 15.648438 17.726562 15.683594 17.816406 15.699219 17.90625 L 15.699219 17.910156 C 15.71875 18 15.714844 18.09375 15.695312 18.191406 C 15.671875 18.289062 15.632812 18.375 15.578125 18.449219 C 15.523438 18.527344 15.449219 18.589844 15.367188 18.640625 L 14.226562 19.296875 C 14.066406 19.390625 13.886719 19.414062 13.722656 19.375 C 13.554688 19.335938 13.402344 19.238281 13.300781 19.085938 L 11.132812 15.882812 C 10.96875 15.972656 10.78125 15.992188 10.617188 15.945312 C 10.445312 15.902344 10.289062 15.789062 10.195312 15.625 L 9.964844 15.226562 L 9.398438 15.550781 C 9.085938 15.734375 8.726562 15.769531 8.398438 15.683594 C 8.074219 15.59375 7.78125 15.382812 7.597656 15.066406 L 7.007812 14.042969 C 6.824219 13.730469 6.789062 13.371094 6.875 13.042969 C 6.964844 12.71875 7.175781 12.425781 7.492188 12.242188 Z M 13.597656 24.859375 L 17.546875 24.859375 L 18.378906 26.640625 L 12.761719 26.640625 Z M 20.007812 27.3125 C 20.160156 27.3125 20.304688 27.375 20.40625 27.476562 C 20.507812 27.582031 20.570312 27.722656 20.570312 27.878906 L 20.570312 28.441406 L 10.570312 28.441406 L 10.570312 27.878906 C 10.570312 27.722656 10.632812 27.582031 10.738281 27.476562 C 10.839844 27.375 10.980469 27.3125 11.136719 27.3125 Z M 15.296875 5.667969 L 18.996094 12.074219 C 18.175781 12.050781 17.453125 12.117188 16.734375 12.292969 C 15.851562 12.507812 14.992188 12.886719 13.988281 13.460938 L 11.59375 9.3125 C 12.59375 8.734375 13.351562 8.175781 13.976562 7.519531 C 14.488281 6.988281 14.90625 6.390625 15.296875 5.667969 Z M 12.886719 14.867188 L 15.039062 18.023438 C 15.042969 18.027344 15.042969 18.03125 15.042969 18.03125 C 15.042969 18.035156 15.042969 18.039062 15.042969 18.042969 C 15.042969 18.046875 15.039062 18.050781 15.039062 18.054688 C 15.039062 18.054688 15.035156 18.058594 15.03125 18.058594 L 13.890625 18.71875 C 13.882812 18.722656 13.878906 18.722656 13.871094 18.722656 C 13.867188 18.722656 13.859375 18.71875 13.855469 18.710938 L 11.710938 15.546875 Z M 9.628906 14.648438 L 9.066406 14.972656 C 8.914062 15.0625 8.734375 15.078125 8.570312 15.035156 C 8.410156 14.992188 8.265625 14.886719 8.175781 14.734375 L 7.585938 13.710938 C 7.496094 13.558594 7.480469 13.378906 7.523438 13.214844 C 7.566406 13.054688 7.667969 12.910156 7.824219 12.820312 L 8.386719 12.496094 Z M 17.902344 6.421875 C 18.246094 6.300781 18.609375 6.292969 18.945312 6.382812 C 19.382812 6.503906 19.777344 6.789062 20.023438 7.210938 C 20.269531 7.636719 20.320312 8.121094 20.199219 8.558594 C 20.109375 8.898438 19.921875 9.207031 19.648438 9.445312 Z M 10.1875 11.636719 C 10.027344 11.726562 9.824219 11.671875 9.730469 11.511719 C 9.640625 11.355469 9.695312 11.148438 9.851562 11.058594 L 10.265625 10.816406 C 10.425781 10.726562 10.632812 10.78125 10.722656 10.941406 C 10.816406 11.097656 10.761719 11.304688 10.601562 11.398438 Z M 11.609375 14.097656 C 11.449219 14.191406 11.246094 14.136719 11.152344 13.976562 C 11.058594 13.816406 11.113281 13.609375 11.273438 13.519531 L 11.6875 13.28125 C 11.847656 13.1875 12.050781 13.242188 12.144531 13.402344 C 12.238281 13.5625 12.183594 13.765625 12.023438 13.859375 Z M 10.898438 12.867188 C 10.738281 12.957031 10.535156 12.902344 10.441406 12.742188 C 10.351562 12.582031 10.40625 12.378906 10.566406 12.289062 L 10.976562 12.050781 C 11.136719 11.957031 11.34375 12.011719 11.433594 12.171875 C 11.527344 12.332031 11.46875 12.535156 11.3125 12.628906 Z M 22.0625 6.421875 C 21.902344 6.515625 21.699219 6.460938 21.605469 6.300781 C 21.511719 6.140625 21.566406 5.933594 21.726562 5.84375 L 23.105469 5.046875 C 23.265625 4.953125 23.46875 5.007812 23.5625 5.167969 C 23.65625 5.328125 23.601562 5.53125 23.441406 5.625 Z M 19.972656 4.425781 C 19.925781 4.605469 19.742188 4.710938 19.5625 4.664062 C 19.386719 4.617188 19.277344 4.433594 19.328125 4.253906 L 19.769531 2.601562 C 19.816406 2.421875 20 2.316406 20.179688 2.363281 C 20.359375 2.410156 20.464844 2.59375 20.417969 2.773438 Z M 22.238281 9.292969 C 22.058594 9.246094 21.953125 9.0625 22 8.886719 C 22.046875 8.707031 22.230469 8.601562 22.410156 8.648438 L 24.0625 9.089844 C 24.242188 9.136719 24.347656 9.320312 24.300781 9.5 C 24.253906 9.679688 24.070312 9.785156 23.890625 9.738281 Z M 17.105469 16.625 C 16.921875 16.625 16.769531 16.472656 16.769531 16.289062 C 16.769531 16.101562 16.921875 15.953125 17.105469 15.953125 L 18.425781 15.953125 C 18.609375 15.953125 18.761719 16.101562 18.761719 16.289062 C 18.761719 16.472656 18.609375 16.625 18.425781 16.625 Z M 17.105469 18.023438 C 16.921875 18.023438 16.769531 17.871094 16.769531 17.6875 C 16.769531 17.5 16.921875 17.351562 17.105469 17.351562 L 18.425781 17.351562 C 18.609375 17.351562 18.761719 17.5 18.761719 17.6875 C 18.761719 17.871094 18.609375 18.023438 18.425781 18.023438 Z M 17.105469 19.417969 C 16.921875 19.417969 16.769531 19.269531 16.769531 19.085938 C 16.769531 18.898438 16.921875 18.75 17.105469 18.75 L 18.425781 18.75 C 18.609375 18.75 18.761719 18.898438 18.761719 19.085938 C 18.761719 19.269531 18.609375 19.417969 18.425781 19.417969 Z M 17.105469 20.816406 C 16.921875 20.816406 16.769531 20.667969 16.769531 20.484375 C 16.769531 20.296875 16.921875 20.148438 17.105469 20.148438 L 18.425781 20.148438 C 18.609375 20.148438 18.761719 20.296875 18.761719 20.484375 C 18.761719 20.667969 18.609375 20.816406 18.425781 20.816406 Z M 19.496094 16.625 C 19.308594 16.625 19.160156 16.472656 19.160156 16.289062 C 19.160156 16.101562 19.308594 15.953125 19.496094 15.953125 L 23.390625 15.953125 C 23.574219 15.953125 23.726562 16.101562 23.726562 16.289062 C 23.726562 16.472656 23.574219 16.625 23.390625 16.625 Z M 19.496094 18.023438 C 19.308594 18.023438 19.160156 17.871094 19.160156 17.6875 C 19.160156 17.5 19.308594 17.351562 19.496094 17.351562 L 23.390625 17.351562 C 23.574219 17.351562 23.726562 17.5 23.726562 17.6875 C 23.726562 17.871094 23.574219 18.023438 23.390625 18.023438 Z M 19.496094 19.417969 C 19.308594 19.417969 19.160156 19.269531 19.160156 19.085938 C 19.160156 18.898438 19.308594 18.75 19.496094 18.75 L 23.390625 18.75 C 23.574219 18.75 23.726562 18.898438 23.726562 19.085938 C 23.726562 19.269531 23.574219 19.417969 23.390625 19.417969 Z M 19.496094 19.417969 " fill-opacity="1" fill-rule="evenodd"/></g></svg>