<svg xmlns="http://www.w3.org/2000/svg" xmlns:xlink="http://www.w3.org/1999/xlink" width="41" zoomAndPan="magnify" viewBox="0 0 30.75 30.750001" height="41" preserveAspectRatio="xMidYMid meet" version="1.0"><defs><clipPath id="ba70fcc9bd"><path d="M 3.050781 23 L 27 23 L 27 28.679688 L 3.050781 28.679688 Z M 3.050781 23 " clip-rule="nonzero"/></clipPath><clipPath id="88f572ca30"><path d="M 22 15 L 27.601562 15 L 27.601562 21 L 22 21 Z M 22 15 " clip-rule="nonzero"/></clipPath></defs><path fill="#a03028" d="M 14.664062 17.824219 C 13.109375 17.824219 5.363281 17.722656 5.363281 15.699219 C 5.363281 13.675781 13.109375 13.570312 14.664062 13.570312 C 14.816406 13.570312 14.949219 13.625 15.058594 13.734375 C 15.164062 13.84375 15.21875 13.976562 15.21875 14.128906 C 15.21875 14.28125 15.164062 14.414062 15.058594 14.523438 C 14.949219 14.632812 14.816406 14.6875 14.664062 14.6875 C 10.046875 14.6875 7.316406 15.296875 6.605469 15.699219 C 7.316406 16.097656 10.046875 16.710938 14.664062 16.710938 C 19.664062 16.710938 22.453125 15.992188 22.859375 15.601562 C 22.878906 15.46875 22.945312 15.359375 23.046875 15.273438 C 23.152344 15.183594 23.269531 15.140625 23.40625 15.144531 C 23.558594 15.144531 23.691406 15.199219 23.800781 15.308594 C 23.910156 15.414062 23.964844 15.546875 23.964844 15.703125 C 23.964844 17.722656 16.214844 17.824219 14.664062 17.824219 Z M 14.664062 17.824219 " fill-opacity="1" fill-rule="nonzero"/><path fill="#a03028" d="M 14.664062 20.511719 C 12.773438 20.511719 6.613281 20.375 6.613281 18.613281 C 6.613281 18.46875 6.660156 18.347656 6.753906 18.242188 C 6.847656 18.132812 6.964844 18.074219 7.105469 18.058594 C 7.246094 18.042969 7.375 18.074219 7.492188 18.15625 C 7.605469 18.238281 7.679688 18.347656 7.710938 18.488281 C 8.113281 18.8125 10.507812 19.398438 14.664062 19.398438 C 18.820312 19.398438 21.210938 18.8125 21.613281 18.488281 C 21.644531 18.347656 21.71875 18.238281 21.835938 18.15625 C 21.949219 18.074219 22.078125 18.039062 22.222656 18.054688 C 22.363281 18.074219 22.480469 18.132812 22.574219 18.238281 C 22.667969 18.347656 22.714844 18.46875 22.714844 18.613281 C 22.714844 20.375 16.550781 20.511719 14.664062 20.511719 Z M 14.664062 20.511719 " fill-opacity="1" fill-rule="nonzero"/><path fill="#a03028" d="M 14.664062 23.203125 C 12.679688 23.203125 8.070312 23.042969 8.070312 21.5625 C 8.070312 21.425781 8.113281 21.304688 8.203125 21.199219 C 8.292969 21.09375 8.40625 21.03125 8.542969 21.011719 C 8.679688 20.992188 8.804688 21.015625 8.921875 21.089844 C 9.039062 21.164062 9.117188 21.265625 9.160156 21.394531 C 9.542969 21.65625 11.421875 22.085938 14.664062 22.085938 C 17.902344 22.085938 19.78125 21.652344 20.167969 21.394531 C 20.210938 21.265625 20.289062 21.164062 20.40625 21.09375 C 20.523438 21.019531 20.648438 20.996094 20.785156 21.015625 C 20.917969 21.035156 21.03125 21.097656 21.121094 21.203125 C 21.210938 21.304688 21.253906 21.425781 21.257812 21.5625 C 21.257812 23.042969 16.644531 23.203125 14.664062 23.203125 Z M 14.664062 23.203125 " fill-opacity="1" fill-rule="nonzero"/><path fill="#a03028" d="M 14.664062 25.5625 C 12.320312 25.5625 9.527344 25.324219 9.527344 24.183594 C 9.527344 24.050781 9.570312 23.933594 9.652344 23.832031 C 9.738281 23.726562 9.84375 23.664062 9.972656 23.636719 C 10.101562 23.609375 10.226562 23.625 10.34375 23.6875 C 10.460938 23.75 10.542969 23.839844 10.597656 23.960938 C 11.921875 24.363281 13.277344 24.523438 14.664062 24.445312 C 16.046875 24.523438 17.402344 24.363281 18.730469 23.960938 C 18.785156 23.839844 18.867188 23.75 18.984375 23.6875 C 19.101562 23.625 19.226562 23.609375 19.355469 23.636719 C 19.484375 23.664062 19.589844 23.726562 19.675781 23.832031 C 19.757812 23.933594 19.800781 24.050781 19.800781 24.183594 C 19.800781 25.324219 17.007812 25.5625 14.664062 25.5625 Z M 14.664062 25.5625 " fill-opacity="1" fill-rule="nonzero"/><g clip-path="url(#ba70fcc9bd)"><path fill="#a03028" d="M 14.664062 28.484375 C 13.46875 28.484375 3.003906 28.414062 3.003906 25.933594 C 3.003906 25.308594 3.464844 24.515625 7.074219 23.917969 L 7.628906 23.828125 L 7.808594 24.925781 L 7.257812 25.015625 C 6.160156 25.085938 5.128906 25.394531 4.171875 25.9375 C 4.746094 26.460938 8.246094 27.367188 14.664062 27.367188 C 21.082031 27.367188 24.570312 26.460938 25.15625 25.9375 C 24.195312 25.394531 23.167969 25.089844 22.070312 25.015625 L 21.519531 24.925781 L 21.703125 23.828125 L 22.253906 23.917969 C 25.859375 24.511719 26.320312 25.308594 26.320312 25.933594 C 26.320312 28.414062 15.859375 28.484375 14.664062 28.484375 Z M 14.664062 28.484375 " fill-opacity="1" fill-rule="nonzero"/></g><g clip-path="url(#88f572ca30)"><path fill="#a03028" d="M 24.570312 20.511719 C 24.417969 20.511719 24.285156 20.457031 24.179688 20.351562 C 24.070312 20.242188 24.015625 20.109375 24.015625 19.957031 C 24.015625 19.800781 24.070312 19.671875 24.179688 19.5625 C 24.285156 19.453125 24.417969 19.398438 24.570312 19.398438 C 24.78125 19.398438 24.980469 19.359375 25.175781 19.28125 C 25.367188 19.199219 25.535156 19.085938 25.683594 18.9375 C 25.832031 18.792969 25.945312 18.621094 26.023438 18.429688 C 26.105469 18.234375 26.144531 18.035156 26.144531 17.828125 C 26.144531 17.617188 26.105469 17.417969 26.023438 17.226562 C 25.945312 17.03125 25.832031 16.863281 25.683594 16.714844 C 25.535156 16.566406 25.367188 16.453125 25.175781 16.375 C 24.980469 16.292969 24.78125 16.253906 24.570312 16.253906 L 23.40625 16.253906 C 23.253906 16.253906 23.121094 16.199219 23.011719 16.089844 C 22.902344 15.984375 22.847656 15.851562 22.847656 15.699219 C 22.847656 15.542969 22.902344 15.414062 23.011719 15.304688 C 23.121094 15.195312 23.253906 15.140625 23.40625 15.140625 L 24.570312 15.140625 C 24.929688 15.140625 25.269531 15.207031 25.601562 15.34375 C 25.929688 15.480469 26.222656 15.675781 26.472656 15.925781 C 26.726562 16.179688 26.917969 16.46875 27.054688 16.796875 C 27.191406 17.128906 27.261719 17.46875 27.261719 17.828125 C 27.261719 18.183594 27.191406 18.527344 27.054688 18.855469 C 26.917969 19.183594 26.726562 19.476562 26.472656 19.726562 C 26.222656 19.980469 25.929688 20.171875 25.601562 20.308594 C 25.269531 20.445312 24.929688 20.511719 24.570312 20.511719 Z M 24.570312 20.511719 " fill-opacity="1" fill-rule="nonzero"/></g><path fill="#a03028" d="M 14.664062 8.90625 C 14.511719 8.90625 14.378906 8.851562 14.273438 8.742188 C 14.054688 8.527344 13.863281 8.292969 13.691406 8.039062 C 13.523438 7.789062 13.378906 7.519531 13.261719 7.238281 C 13.144531 6.957031 13.058594 6.664062 13 6.367188 C 12.9375 6.066406 12.910156 5.765625 12.910156 5.460938 C 12.910156 5.15625 12.9375 4.851562 13 4.554688 C 13.058594 4.253906 13.144531 3.964844 13.261719 3.683594 C 13.378906 3.402344 13.523438 3.132812 13.691406 2.878906 C 13.863281 2.625 14.054688 2.390625 14.273438 2.175781 C 14.382812 2.074219 14.511719 2.027344 14.660156 2.027344 C 14.8125 2.03125 14.9375 2.085938 15.042969 2.191406 C 15.148438 2.296875 15.203125 2.425781 15.207031 2.574219 C 15.210938 2.726562 15.160156 2.855469 15.058594 2.964844 C 14.726562 3.292969 14.472656 3.675781 14.292969 4.109375 C 14.113281 4.542969 14.023438 4.992188 14.023438 5.460938 C 14.023438 5.929688 14.113281 6.378906 14.292969 6.8125 C 14.472656 7.242188 14.726562 7.625 15.058594 7.957031 C 15.234375 8.128906 15.273438 8.332031 15.179688 8.5625 C 15.085938 8.792969 14.914062 8.90625 14.664062 8.90625 Z M 14.664062 8.90625 " fill-opacity="1" fill-rule="nonzero"/><path fill="#a03028" d="M 14.664062 14.6875 C 14.417969 14.683594 14.246094 14.570312 14.152344 14.339844 C 14.058594 14.113281 14.097656 13.910156 14.273438 13.734375 C 14.601562 13.402344 14.855469 13.023438 15.035156 12.589844 C 15.210938 12.15625 15.300781 11.707031 15.300781 11.238281 C 15.300781 10.769531 15.210938 10.320312 15.035156 9.890625 C 14.855469 9.457031 14.601562 9.074219 14.273438 8.742188 C 14.15625 8.636719 14.097656 8.503906 14.09375 8.34375 C 14.089844 8.1875 14.144531 8.050781 14.257812 7.941406 C 14.367188 7.828125 14.503906 7.773438 14.660156 7.777344 C 14.820312 7.78125 14.953125 7.839844 15.058594 7.957031 C 15.273438 8.171875 15.464844 8.40625 15.636719 8.660156 C 15.804688 8.914062 15.949219 9.179688 16.0625 9.460938 C 16.179688 9.742188 16.269531 10.035156 16.328125 10.332031 C 16.386719 10.632812 16.417969 10.933594 16.417969 11.238281 C 16.417969 11.542969 16.386719 11.84375 16.328125 12.144531 C 16.269531 12.441406 16.179688 12.734375 16.0625 13.015625 C 15.949219 13.296875 15.804688 13.5625 15.636719 13.816406 C 15.464844 14.070312 15.273438 14.304688 15.058594 14.523438 C 14.949219 14.632812 14.820312 14.6875 14.664062 14.6875 Z M 14.664062 14.6875 " fill-opacity="1" fill-rule="nonzero"/><path fill="#a03028" d="M 18.652344 9.574219 C 18.496094 9.574219 18.367188 9.519531 18.257812 9.410156 C 17.917969 9.074219 17.65625 8.683594 17.472656 8.238281 C 17.289062 7.796875 17.195312 7.335938 17.195312 6.855469 C 17.195312 6.375 17.289062 5.914062 17.472656 5.472656 C 17.65625 5.03125 17.917969 4.640625 18.257812 4.300781 C 18.367188 4.191406 18.496094 4.136719 18.652344 4.136719 C 18.804688 4.136719 18.933594 4.191406 19.042969 4.300781 C 19.152344 4.410156 19.207031 4.539062 19.207031 4.695312 C 19.207031 4.847656 19.152344 4.980469 19.042969 5.085938 C 18.808594 5.320312 18.628906 5.59375 18.5 5.898438 C 18.375 6.203125 18.3125 6.523438 18.3125 6.855469 C 18.3125 7.1875 18.375 7.503906 18.5 7.8125 C 18.628906 8.117188 18.808594 8.390625 19.042969 8.625 C 19.21875 8.796875 19.257812 9 19.164062 9.230469 C 19.070312 9.457031 18.898438 9.574219 18.652344 9.574219 Z M 18.652344 9.574219 " fill-opacity="1" fill-rule="nonzero"/><path fill="#a03028" d="M 18.652344 13.898438 C 18.402344 13.894531 18.234375 13.78125 18.136719 13.554688 C 18.042969 13.324219 18.082031 13.121094 18.257812 12.945312 C 18.492188 12.710938 18.671875 12.441406 18.796875 12.136719 C 18.925781 11.828125 18.988281 11.511719 18.988281 11.179688 C 18.988281 10.847656 18.925781 10.53125 18.796875 10.222656 C 18.671875 9.917969 18.492188 9.648438 18.257812 9.414062 C 18.15625 9.304688 18.105469 9.171875 18.109375 9.023438 C 18.109375 8.875 18.164062 8.746094 18.269531 8.640625 C 18.375 8.535156 18.503906 8.480469 18.652344 8.476562 C 18.804688 8.472656 18.933594 8.523438 19.042969 8.625 C 19.382812 8.964844 19.644531 9.355469 19.824219 9.796875 C 20.007812 10.238281 20.101562 10.699219 20.101562 11.179688 C 20.101562 11.660156 20.007812 12.121094 19.824219 12.5625 C 19.644531 13.003906 19.382812 13.398438 19.042969 13.734375 C 18.933594 13.84375 18.804688 13.898438 18.652344 13.898438 Z M 18.652344 13.898438 " fill-opacity="1" fill-rule="nonzero"/><path fill="#a03028" d="M 21.261719 15.101562 C 21.105469 15.101562 20.976562 15.046875 20.867188 14.9375 C 20.757812 14.828125 20.703125 14.699219 20.703125 14.542969 C 20.703125 14.390625 20.757812 14.257812 20.867188 14.148438 C 21.085938 13.929688 21.28125 13.695312 21.453125 13.4375 C 21.621094 13.179688 21.765625 12.910156 21.886719 12.621094 C 22.003906 12.335938 22.09375 12.042969 22.152344 11.742188 C 22.210938 11.4375 22.242188 11.132812 22.242188 10.824219 C 22.242188 10.515625 22.210938 10.207031 22.152344 9.90625 C 22.09375 9.601562 22.003906 9.308594 21.886719 9.023438 C 21.765625 8.738281 21.621094 8.46875 21.453125 8.210938 C 21.28125 7.953125 21.085938 7.714844 20.867188 7.496094 C 20.757812 7.386719 20.703125 7.257812 20.703125 7.101562 C 20.703125 6.949219 20.757812 6.816406 20.867188 6.707031 C 20.976562 6.601562 21.105469 6.546875 21.261719 6.546875 C 21.414062 6.546875 21.546875 6.597656 21.65625 6.707031 C 21.925781 6.980469 22.164062 7.273438 22.375 7.589844 C 22.589844 7.910156 22.765625 8.242188 22.914062 8.597656 C 23.058594 8.949219 23.167969 9.3125 23.242188 9.6875 C 23.316406 10.0625 23.355469 10.441406 23.355469 10.824219 C 23.355469 11.203125 23.316406 11.582031 23.242188 11.957031 C 23.167969 12.332031 23.058594 12.695312 22.914062 13.046875 C 22.765625 13.402344 22.589844 13.738281 22.375 14.054688 C 22.164062 14.371094 21.925781 14.667969 21.65625 14.9375 C 21.546875 15.046875 21.414062 15.101562 21.261719 15.101562 Z M 21.261719 15.101562 " fill-opacity="1" fill-rule="nonzero"/></svg>