<svg xmlns="http://www.w3.org/2000/svg" xmlns:xlink="http://www.w3.org/1999/xlink" width="41" zoomAndPan="magnify" viewBox="0 0 30.75 30.750001" height="41" preserveAspectRatio="xMidYMid meet" version="1.0"><defs><clipPath id="cb5e0f4f26"><path d="M 3 3.050781 L 28.503906 3.050781 L 28.503906 25 L 3 25 Z M 3 3.050781 " clip-rule="nonzero"/></clipPath><clipPath id="35d0549f5c"><path d="M 3 3.050781 L 28.503906 3.050781 L 28.503906 26 L 3 26 Z M 3 3.050781 " clip-rule="nonzero"/></clipPath><clipPath id="8d5fd4a6af"><path d="M 1.71875 6 L 10 6 L 10 28.34375 L 1.71875 28.34375 Z M 1.71875 6 " clip-rule="nonzero"/></clipPath><clipPath id="00325d8797"><path d="M 7 21 L 28.503906 21 L 28.503906 28 L 7 28 Z M 7 21 " clip-rule="nonzero"/></clipPath><clipPath id="71161bb3e8"><path d="M 7 21 L 28.503906 21 L 28.503906 28.34375 L 7 28.34375 Z M 7 21 " clip-rule="nonzero"/></clipPath></defs><g clip-path="url(#cb5e0f4f26)"><path fill="#a03028" d="M 9.402344 24.816406 L 3.894531 6.878906 L 22.929688 3.414062 L 28.4375 21.347656 Z M 9.402344 24.816406 " fill-opacity="1" fill-rule="nonzero"/></g><g clip-path="url(#35d0549f5c)"><path fill="#ffffff" d="M 9.402344 25.136719 C 9.261719 25.136719 9.136719 25.046875 9.09375 24.910156 L 3.585938 6.976562 C 3.558594 6.886719 3.570312 6.792969 3.617188 6.710938 C 3.664062 6.632812 3.746094 6.578125 3.835938 6.5625 L 22.871094 3.097656 C 23.03125 3.066406 23.191406 3.164062 23.238281 3.320312 L 28.746094 21.253906 C 28.773438 21.34375 28.761719 21.4375 28.714844 21.515625 C 28.667969 21.59375 28.585938 21.648438 28.496094 21.667969 L 9.460938 25.132812 C 9.441406 25.136719 9.421875 25.136719 9.402344 25.136719 Z M 4.308594 7.132812 L 9.628906 24.445312 L 28.023438 21.097656 L 22.703125 3.785156 Z M 4.308594 7.132812 " fill-opacity="1" fill-rule="nonzero"/></g><path fill="#ffffff" d="M 20.464844 18.039062 C 21 18.53125 21.5625 18.996094 22.40625 18.84375 C 23.113281 18.714844 23.382812 18.316406 23.242188 17.855469 C 23.074219 17.308594 22.628906 17.183594 21.753906 17.007812 L 21.273438 16.914062 C 19.890625 16.644531 18.882812 16.175781 18.484375 14.875 C 18.113281 13.671875 18.808594 12.582031 20.332031 12.304688 C 21.417969 12.105469 22.308594 12.320312 23.15625 13.144531 L 22.070312 14.1875 C 21.628906 13.746094 21.253906 13.613281 20.761719 13.699219 C 20.261719 13.792969 20.035156 14.148438 20.15625 14.535156 C 20.304688 15.015625 20.679688 15.152344 21.503906 15.316406 L 21.984375 15.410156 C 23.613281 15.726562 24.617188 16.175781 25.027344 17.511719 C 25.46875 18.953125 24.503906 19.960938 22.882812 20.257812 C 21.296875 20.546875 20.164062 19.960938 19.378906 19.121094 Z M 20.464844 18.039062 " fill-opacity="1" fill-rule="nonzero"/><path fill="#ffffff" d="M 22.097656 20.652344 C 20.964844 20.652344 19.957031 20.207031 19.144531 19.34375 C 19.023438 19.214844 19.027344 19.015625 19.152344 18.894531 L 20.234375 17.808594 C 20.359375 17.6875 20.554688 17.683594 20.683594 17.800781 C 21.210938 18.285156 21.671875 18.648438 22.347656 18.523438 C 22.632812 18.472656 22.832031 18.371094 22.914062 18.238281 C 22.960938 18.160156 22.96875 18.066406 22.933594 17.953125 C 22.824219 17.597656 22.570312 17.5 21.691406 17.324219 L 21.210938 17.230469 C 19.917969 16.976562 18.652344 16.53125 18.175781 14.96875 C 17.976562 14.328125 18.046875 13.6875 18.363281 13.167969 C 18.730469 12.5625 19.410156 12.144531 20.277344 11.988281 C 21.511719 11.761719 22.5 12.054688 23.378906 12.914062 C 23.441406 12.972656 23.480469 13.058594 23.476562 13.144531 C 23.476562 13.234375 23.441406 13.316406 23.378906 13.375 L 22.296875 14.417969 C 22.167969 14.539062 21.96875 14.539062 21.84375 14.417969 C 21.429688 14.003906 21.152344 13.957031 20.820312 14.019531 C 20.65625 14.046875 20.539062 14.113281 20.484375 14.207031 C 20.441406 14.269531 20.4375 14.351562 20.464844 14.441406 C 20.550781 14.714844 20.710938 14.828125 21.566406 15 L 22.046875 15.09375 C 23.738281 15.421875 24.878906 15.925781 25.335938 17.417969 C 25.542969 18.09375 25.480469 18.734375 25.160156 19.265625 C 24.757812 19.921875 23.972656 20.386719 22.941406 20.574219 C 22.652344 20.625 22.371094 20.652344 22.097656 20.652344 Z M 19.835938 19.121094 C 20.660156 19.875 21.664062 20.148438 22.824219 19.9375 C 23.671875 19.785156 24.304688 19.425781 24.605469 18.929688 C 24.835938 18.554688 24.871094 18.109375 24.71875 17.605469 C 24.351562 16.414062 23.453125 16.027344 21.921875 15.726562 L 21.441406 15.632812 C 20.640625 15.472656 20.054688 15.308594 19.847656 14.628906 C 19.765625 14.363281 19.796875 14.09375 19.929688 13.871094 C 20.082031 13.617188 20.359375 13.445312 20.703125 13.382812 C 21.214844 13.289062 21.632812 13.398438 22.0625 13.746094 L 22.679688 13.152344 C 22.019531 12.613281 21.316406 12.453125 20.390625 12.621094 C 19.707031 12.746094 19.183594 13.058594 18.914062 13.5 C 18.691406 13.871094 18.648438 14.3125 18.792969 14.777344 C 19.148438 15.945312 20.066406 16.347656 21.335938 16.59375 L 21.816406 16.6875 C 22.621094 16.851562 23.316406 16.992188 23.550781 17.761719 C 23.640625 18.054688 23.609375 18.335938 23.464844 18.574219 C 23.339844 18.78125 23.0625 19.050781 22.464844 19.160156 C 21.574219 19.320312 20.933594 18.882812 20.476562 18.484375 Z M 19.835938 19.121094 " fill-opacity="1" fill-rule="nonzero"/><path fill="#ffffff" d="M 14.351562 19.195312 C 14.757812 19.597656 15.269531 19.871094 15.855469 19.765625 C 16.414062 19.664062 16.671875 19.394531 16.421875 18.585938 L 14.800781 13.3125 L 16.566406 12.988281 L 18.265625 18.519531 C 18.777344 20.199219 17.980469 21.148438 16.472656 21.421875 C 15.109375 21.671875 13.859375 20.980469 13.210938 20.246094 Z M 14.351562 19.195312 " fill-opacity="1" fill-rule="nonzero"/><path fill="#ffffff" d="M 15.890625 21.800781 C 14.621094 21.800781 13.550781 21.117188 12.96875 20.460938 C 12.851562 20.328125 12.863281 20.128906 12.992188 20.007812 L 14.132812 18.957031 C 14.257812 18.839844 14.453125 18.84375 14.578125 18.964844 C 14.976562 19.359375 15.386719 19.523438 15.796875 19.445312 C 15.992188 19.410156 16.117188 19.355469 16.160156 19.285156 C 16.195312 19.226562 16.234375 19.074219 16.113281 18.679688 L 14.492188 13.40625 C 14.464844 13.316406 14.480469 13.222656 14.527344 13.144531 C 14.574219 13.066406 14.652344 13.011719 14.746094 12.992188 L 16.507812 12.671875 C 16.667969 12.644531 16.824219 12.738281 16.875 12.894531 L 18.574219 18.425781 C 18.839844 19.292969 18.792969 20.023438 18.441406 20.601562 C 18.089844 21.183594 17.429688 21.578125 16.53125 21.742188 C 16.3125 21.78125 16.097656 21.800781 15.890625 21.800781 Z M 13.675781 20.257812 C 14.320312 20.847656 15.347656 21.300781 16.414062 21.105469 C 17.125 20.976562 17.636719 20.6875 17.890625 20.269531 C 18.144531 19.851562 18.164062 19.296875 17.957031 18.613281 L 16.339844 13.359375 L 15.21875 13.5625 L 16.730469 18.492188 C 16.882812 18.988281 16.878906 19.347656 16.710938 19.621094 C 16.515625 19.9375 16.160156 20.035156 15.914062 20.082031 C 15.375 20.179688 14.84375 20.023438 14.351562 19.632812 Z M 13.675781 20.257812 " fill-opacity="1" fill-rule="nonzero"/><path fill="#a03028" d="M 3.894531 6.878906 L 2.054688 9.898438 L 7.5625 27.832031 L 9.402344 24.816406 Z M 3.894531 6.878906 " fill-opacity="1" fill-rule="nonzero"/><g clip-path="url(#8d5fd4a6af)"><path fill="#ffffff" d="M 7.5625 28.15625 C 7.550781 28.15625 7.535156 28.152344 7.523438 28.152344 C 7.398438 28.136719 7.292969 28.046875 7.253906 27.925781 L 1.746094 9.992188 C 1.71875 9.902344 1.730469 9.808594 1.777344 9.730469 L 3.617188 6.710938 C 3.683594 6.605469 3.808594 6.542969 3.933594 6.558594 C 4.058594 6.574219 4.164062 6.664062 4.203125 6.785156 L 9.710938 24.71875 C 9.738281 24.808594 9.726562 24.902344 9.679688 24.984375 L 7.839844 28 C 7.78125 28.097656 7.675781 28.15625 7.5625 28.15625 Z M 2.40625 9.941406 L 7.660156 27.050781 L 9.050781 24.769531 L 3.796875 7.660156 Z M 2.40625 9.941406 " fill-opacity="1" fill-rule="nonzero"/></g><g clip-path="url(#00325d8797)"><path fill="#a03028" d="M 28.4375 21.347656 L 26.597656 24.367188 L 7.5625 27.832031 L 9.402344 24.816406 Z M 28.4375 21.347656 " fill-opacity="1" fill-rule="nonzero"/></g><g clip-path="url(#71161bb3e8)"><path fill="#ffffff" d="M 7.5625 28.15625 C 7.457031 28.15625 7.359375 28.101562 7.296875 28.015625 C 7.226562 27.910156 7.222656 27.773438 7.289062 27.664062 L 9.128906 24.648438 C 9.175781 24.566406 9.253906 24.511719 9.34375 24.496094 L 28.378906 21.03125 C 28.503906 21.007812 28.632812 21.0625 28.703125 21.167969 C 28.777344 21.269531 28.78125 21.410156 28.714844 21.515625 L 26.875 24.535156 C 26.828125 24.613281 26.746094 24.667969 26.65625 24.683594 L 7.621094 28.148438 C 7.601562 28.152344 7.582031 28.15625 7.5625 28.15625 Z M 9.605469 25.105469 L 8.214844 27.386719 L 26.398438 24.074219 L 27.789062 21.796875 Z M 9.605469 25.105469 " fill-opacity="1" fill-rule="nonzero"/></g></svg>