<svg xmlns="http://www.w3.org/2000/svg" xmlns:xlink="http://www.w3.org/1999/xlink" width="41" zoomAndPan="magnify" viewBox="0 0 30.75 30.750001" height="41" preserveAspectRatio="xMidYMid meet" version="1.0"><defs><clipPath id="425e0921fb"><path d="M 8 17 L 23 17 L 23 28.640625 L 8 28.640625 Z M 8 17 " clip-rule="nonzero"/></clipPath><clipPath id="48029777eb"><path d="M 20 7 L 28.640625 7 L 28.640625 22 L 20 22 Z M 20 7 " clip-rule="nonzero"/></clipPath><clipPath id="0bc21dc382"><path d="M 7 1.117188 L 22 1.117188 L 22 13 L 7 13 Z M 7 1.117188 " clip-rule="nonzero"/></clipPath><clipPath id="8255309904"><path d="M 1.117188 8 L 10 8 L 10 23 L 1.117188 23 Z M 1.117188 8 " clip-rule="nonzero"/></clipPath></defs><path fill="#a03028" d="M 9.179688 22.070312 C 8.707031 22.070312 8.328125 21.6875 8.328125 21.214844 L 8.328125 18.308594 C 8.359375 16.390625 9.574219 15.253906 11.574219 15.253906 L 17.808594 15.253906 C 20.402344 15.253906 21.953125 13.792969 21.953125 11.347656 L 21.953125 8.441406 C 21.953125 7.96875 22.335938 7.589844 22.804688 7.589844 C 23.273438 7.589844 23.65625 7.96875 23.65625 8.441406 L 23.65625 11.28125 C 23.65625 14.757812 21.359375 16.957031 17.808594 16.957031 L 11.574219 16.957031 C 10.234375 16.957031 10.042969 17.648438 10.03125 18.324219 L 10.03125 21.214844 C 10.03125 21.6875 9.648438 22.070312 9.179688 22.070312 Z M 9.179688 22.070312 " fill-opacity="1" fill-rule="nonzero"/><g clip-path="url(#425e0921fb)"><path fill="#a03028" d="M 15.050781 28.597656 C 13.953125 28.597656 12.832031 28.511719 11.765625 28.339844 C 9.675781 27.984375 8.328125 26.378906 8.328125 24.25 L 8.328125 18.308594 C 8.328125 17.839844 8.707031 17.457031 9.179688 17.457031 C 9.648438 17.457031 10.03125 17.839844 10.03125 18.308594 L 10.03125 24.246094 C 10.03125 25.542969 10.785156 26.441406 12.046875 26.65625 C 14.019531 26.976562 16.183594 26.972656 17.984375 26.644531 C 19.046875 26.464844 19.714844 26.195312 20.03125 25.820312 C 20.285156 25.515625 20.394531 25.046875 20.394531 24.246094 L 20.394531 21.5 L 15.707031 21.5 C 15.238281 21.5 14.855469 21.117188 14.855469 20.648438 C 14.855469 20.175781 15.238281 19.792969 15.707031 19.792969 L 21.246094 19.792969 C 21.71875 19.792969 22.097656 20.175781 22.097656 20.648438 L 22.097656 24.246094 C 22.097656 25.070312 22.011719 26.117188 21.328125 26.921875 C 20.734375 27.621094 19.769531 28.066406 18.28125 28.320312 C 17.28125 28.507812 16.175781 28.597656 15.050781 28.597656 Z M 15.050781 28.597656 " fill-opacity="1" fill-rule="nonzero"/></g><g clip-path="url(#48029777eb)"><path fill="#a03028" d="M 23.589844 21.5 L 21.25 21.5 C 20.777344 21.5 20.398438 21.117188 20.398438 20.648438 C 20.398438 20.179688 20.777344 19.796875 21.25 19.796875 L 23.589844 19.796875 C 25.230469 19.796875 26.011719 19.214844 26.371094 17.722656 C 26.917969 15.429688 26.917969 14.097656 26.371094 11.78125 C 25.871094 9.714844 25.128906 9.292969 24.167969 9.292969 L 23.65625 9.292969 L 23.65625 11.28125 C 23.65625 11.75 23.273438 12.164062 22.804688 12.164062 C 22.335938 12.164062 21.953125 11.816406 21.953125 11.347656 L 21.953125 8.441406 C 21.953125 7.96875 22.335938 7.589844 22.804688 7.589844 L 24.167969 7.589844 C 26.808594 7.589844 27.632812 9.753906 28.027344 11.386719 C 28.632812 13.949219 28.632812 15.582031 28.027344 18.121094 C 27.484375 20.363281 25.992188 21.5 23.589844 21.5 Z M 23.589844 21.5 " fill-opacity="1" fill-rule="nonzero"/></g><path fill="#a03028" d="M 17.128906 26.042969 C 16.03125 26.042969 15.140625 25.152344 15.140625 24.054688 C 15.140625 22.957031 16.03125 22.070312 17.128906 22.070312 C 18.222656 22.070312 19.113281 22.957031 19.113281 24.054688 C 19.101562 25.15625 18.210938 26.042969 17.128906 26.042969 Z M 17.128906 23.773438 C 16.96875 23.773438 16.84375 23.898438 16.84375 24.054688 C 16.84375 24.363281 17.40625 24.367188 17.410156 24.046875 C 17.410156 23.898438 17.28125 23.773438 17.128906 23.773438 Z M 17.128906 23.773438 " fill-opacity="1" fill-rule="nonzero"/><path fill="#a03028" d="M 6.910156 22.351562 C 6.441406 22.351562 6.058594 21.972656 6.058594 21.5 L 6.058594 18.660156 C 6.058594 15.183594 8.351562 12.984375 11.90625 12.984375 L 18.140625 12.984375 C 19.480469 12.984375 19.671875 12.292969 19.683594 11.617188 L 19.683594 8.726562 C 19.683594 8.253906 20.066406 7.871094 20.535156 7.871094 C 21.003906 7.871094 21.386719 8.253906 21.386719 8.726562 L 21.386719 11.632812 C 21.351562 13.550781 20.140625 14.6875 18.140625 14.6875 L 11.90625 14.6875 C 9.3125 14.6875 7.761719 16.148438 7.761719 18.59375 L 7.761719 21.5 C 7.761719 21.972656 7.378906 22.351562 6.910156 22.351562 Z M 6.910156 22.351562 " fill-opacity="1" fill-rule="nonzero"/><g clip-path="url(#0bc21dc382)"><path fill="#a03028" d="M 20.535156 12.484375 C 20.066406 12.484375 19.683594 12.101562 19.683594 11.632812 L 19.683594 5.691406 C 19.683594 4.398438 18.929688 3.496094 17.667969 3.285156 C 15.695312 2.964844 13.53125 2.964844 11.730469 3.296875 C 10.667969 3.476562 10 3.746094 9.683594 4.117188 C 9.425781 4.421875 9.316406 4.890625 9.316406 5.691406 L 9.316406 8.441406 L 14.007812 8.441406 C 14.476562 8.441406 14.859375 8.824219 14.859375 9.292969 C 14.859375 9.761719 14.476562 10.144531 14.007812 10.144531 L 8.464844 10.144531 C 7.996094 10.144531 7.613281 9.761719 7.613281 9.292969 L 7.613281 5.691406 C 7.613281 4.871094 7.703125 3.824219 8.382812 3.019531 C 8.976562 2.320312 9.945312 1.871094 11.433594 1.617188 C 13.410156 1.257812 15.785156 1.253906 17.949219 1.605469 C 20.039062 1.957031 21.386719 3.5625 21.386719 5.695312 L 21.386719 11.632812 C 21.386719 12.101562 21.007812 12.484375 20.535156 12.484375 Z M 20.535156 12.484375 " fill-opacity="1" fill-rule="nonzero"/></g><g clip-path="url(#8255309904)"><path fill="#a03028" d="M 6.910156 22.351562 L 5.546875 22.351562 C 2.90625 22.351562 2.082031 20.183594 1.6875 18.554688 C 1.078125 15.992188 1.078125 14.359375 1.6875 11.820312 C 2.230469 9.578125 3.722656 8.441406 6.125 8.441406 L 8.464844 8.441406 C 8.9375 8.441406 9.316406 8.824219 9.316406 9.292969 C 9.316406 9.761719 8.9375 10.144531 8.464844 10.144531 L 6.125 10.144531 C 4.484375 10.144531 3.703125 10.726562 3.34375 12.21875 C 2.792969 14.511719 2.792969 15.84375 3.34375 18.160156 C 3.839844 20.226562 4.585938 20.648438 5.546875 20.648438 L 6.058594 20.648438 L 6.058594 18.660156 C 6.058594 18.191406 6.441406 17.777344 6.910156 17.777344 C 7.378906 17.777344 7.761719 18.125 7.761719 18.59375 L 7.761719 21.5 C 7.761719 21.972656 7.378906 22.351562 6.910156 22.351562 Z M 6.910156 22.351562 " fill-opacity="1" fill-rule="nonzero"/></g><path fill="#a03028" d="M 12.585938 7.871094 C 11.492188 7.871094 10.601562 6.984375 10.601562 5.886719 C 10.609375 4.785156 11.5 3.898438 12.585938 3.898438 C 13.683594 3.898438 14.574219 4.789062 14.574219 5.886719 C 14.574219 6.984375 13.683594 7.871094 12.585938 7.871094 Z M 12.585938 5.601562 C 12.429688 5.601562 12.304688 5.730469 12.304688 5.894531 C 12.304688 6.191406 12.871094 6.199219 12.871094 5.886719 C 12.871094 5.734375 12.738281 5.601562 12.585938 5.601562 Z M 12.585938 5.601562 " fill-opacity="1" fill-rule="nonzero"/></svg>