<svg xmlns="http://www.w3.org/2000/svg" xmlns:xlink="http://www.w3.org/1999/xlink" width="41" zoomAndPan="magnify" viewBox="0 0 30.75 30.750001" height="41" preserveAspectRatio="xMidYMid meet" version="1.0"><defs><clipPath id="4282d39d41"><path d="M 3.050781 3.050781 L 27.601562 3.050781 L 27.601562 26.855469 L 3.050781 26.855469 Z M 3.050781 3.050781 " clip-rule="nonzero"/></clipPath></defs><g clip-path="url(#4282d39d41)"><path fill="#a03028" d="M 14.425781 21.464844 C 14.425781 21.371094 14.460938 21.292969 14.523438 21.230469 C 14.589844 21.164062 14.667969 21.132812 14.761719 21.132812 L 15.738281 21.132812 C 15.832031 21.132812 15.910156 21.164062 15.976562 21.230469 C 16.039062 21.292969 16.074219 21.371094 16.074219 21.464844 C 16.074219 21.554688 16.039062 21.636719 15.976562 21.699219 C 15.910156 21.765625 15.832031 21.796875 15.738281 21.796875 L 14.761719 21.796875 C 14.667969 21.796875 14.589844 21.765625 14.523438 21.699219 C 14.460938 21.636719 14.425781 21.554688 14.425781 21.464844 Z M 27.445312 7.90625 L 27.445312 21.851562 C 27.445312 22.027344 27.410156 22.195312 27.34375 22.359375 C 27.277344 22.523438 27.179688 22.667969 27.054688 22.792969 C 26.929688 22.917969 26.785156 23.011719 26.621094 23.082031 C 26.457031 23.148438 26.289062 23.183594 26.113281 23.183594 L 17.816406 23.183594 L 17.816406 25.011719 L 18.195312 25.011719 C 18.332031 25.011719 18.464844 25.039062 18.59375 25.09375 C 18.722656 25.148438 18.835938 25.222656 18.933594 25.320312 C 19.035156 25.417969 19.109375 25.53125 19.164062 25.660156 C 19.214844 25.789062 19.242188 25.921875 19.242188 26.0625 L 19.242188 26.777344 C 19.242188 26.867188 19.210938 26.945312 19.144531 27.011719 C 19.078125 27.078125 19 27.109375 18.910156 27.109375 L 11.589844 27.109375 C 11.5 27.109375 11.421875 27.078125 11.355469 27.011719 C 11.289062 26.945312 11.257812 26.867188 11.257812 26.777344 L 11.257812 26.0625 C 11.257812 25.921875 11.285156 25.789062 11.335938 25.660156 C 11.390625 25.53125 11.464844 25.417969 11.566406 25.320312 C 11.664062 25.222656 11.777344 25.148438 11.90625 25.09375 C 12.035156 25.039062 12.167969 25.011719 12.304688 25.011719 L 12.683594 25.011719 L 12.683594 23.183594 L 4.386719 23.183594 C 4.210938 23.183594 4.039062 23.148438 3.875 23.082031 C 3.714844 23.011719 3.570312 22.917969 3.445312 22.792969 C 3.320312 22.667969 3.222656 22.523438 3.15625 22.359375 C 3.089844 22.195312 3.054688 22.027344 3.054688 21.851562 L 3.054688 7.90625 C 3.054688 7.726562 3.089844 7.558594 3.15625 7.394531 C 3.222656 7.230469 3.320312 7.089844 3.445312 6.964844 C 3.570312 6.839844 3.714844 6.742188 3.875 6.675781 C 4.039062 6.605469 4.210938 6.574219 4.386719 6.574219 L 22.773438 6.574219 C 23.167969 6.035156 23.523438 5.566406 23.839844 5.160156 C 24.386719 4.460938 24.8125 3.964844 25.132812 3.648438 C 25.460938 3.324219 25.808594 3.050781 26.125 3.230469 C 26.484375 3.4375 26.359375 3.960938 26.207031 4.480469 C 26.058594 4.972656 25.800781 5.660156 25.414062 6.574219 L 26.113281 6.574219 C 26.289062 6.574219 26.457031 6.605469 26.621094 6.675781 C 26.785156 6.742188 26.929688 6.839844 27.054688 6.964844 C 27.179688 7.089844 27.273438 7.230469 27.34375 7.394531 C 27.410156 7.558594 27.445312 7.726562 27.445312 7.90625 Z M 23.222656 7.085938 C 23.214844 7.097656 23.207031 7.109375 23.195312 7.121094 C 22.429688 8.164062 21.515625 9.453125 20.4375 11.015625 L 22.203125 12.035156 C 23.300781 9.707031 24.054688 8.050781 24.601562 6.78125 C 24.601562 6.777344 24.605469 6.773438 24.605469 6.769531 C 24.613281 6.757812 24.617188 6.742188 24.625 6.726562 C 25.25 5.269531 25.515625 4.5 25.625 4.097656 C 25.355469 4.359375 24.890625 4.882812 24.09375 5.921875 C 23.828125 6.269531 23.539062 6.65625 23.222656 7.085938 Z M 21.679688 13.148438 C 21.761719 12.976562 21.839844 12.804688 21.917969 12.640625 L 20.058594 11.566406 C 19.953125 11.714844 19.847656 11.871094 19.738281 12.027344 Z M 19.230469 12.503906 C 18.667969 12.75 18.574219 13.203125 18.460938 14.011719 C 18.355469 14.753906 18.226562 15.652344 17.40625 16.347656 C 18.714844 16.757812 19.648438 16.375 20.222656 15.945312 C 21.066406 15.3125 21.484375 14.355469 21.503906 13.816406 Z M 12.304688 25.679688 C 12.199219 25.679688 12.109375 25.71875 12.035156 25.792969 C 11.960938 25.867188 11.925781 25.957031 11.925781 26.0625 L 11.925781 26.441406 L 18.574219 26.441406 L 18.574219 26.0625 C 18.574219 25.957031 18.539062 25.867188 18.464844 25.792969 C 18.390625 25.71875 18.300781 25.679688 18.195312 25.679688 Z M 17.148438 25.011719 L 17.148438 23.183594 L 13.351562 23.183594 L 13.351562 25.011719 Z M 26.777344 20.414062 L 3.722656 20.414062 L 3.722656 21.851562 C 3.722656 22.035156 3.785156 22.191406 3.917969 22.320312 C 4.046875 22.449219 4.203125 22.515625 4.386719 22.515625 L 26.113281 22.515625 C 26.296875 22.515625 26.453125 22.449219 26.582031 22.320312 C 26.710938 22.191406 26.777344 22.035156 26.777344 21.851562 Z M 26.777344 7.90625 C 26.777344 7.722656 26.710938 7.5625 26.582031 7.433594 C 26.453125 7.304688 26.296875 7.238281 26.113281 7.238281 L 25.128906 7.238281 C 24.566406 8.546875 23.777344 10.261719 22.664062 12.625 C 22.65625 12.640625 22.652344 12.65625 22.640625 12.671875 C 22.488281 12.996094 22.332031 13.332031 22.164062 13.675781 C 22.214844 14.453125 21.660156 15.703125 20.621094 16.476562 C 19.992188 16.957031 19.28125 17.195312 18.488281 17.195312 C 17.925781 17.195312 17.28125 17.066406 16.554688 16.734375 C 16.429688 16.679688 16.367188 16.582031 16.359375 16.445312 C 16.355469 16.308594 16.414062 16.207031 16.535156 16.140625 C 17.5625 15.578125 17.679688 14.769531 17.800781 13.914062 C 17.910156 13.132812 18.039062 12.25 19.046875 11.859375 C 19.257812 11.550781 19.464844 11.25 19.667969 10.957031 C 19.667969 10.957031 19.667969 10.957031 19.667969 10.953125 C 19.675781 10.9375 19.6875 10.925781 19.699219 10.910156 C 20.691406 9.472656 21.550781 8.253906 22.285156 7.242188 L 4.386719 7.242188 C 4.203125 7.242188 4.046875 7.304688 3.917969 7.433594 C 3.785156 7.566406 3.722656 7.722656 3.722656 7.90625 L 3.722656 19.75 L 26.777344 19.75 Z M 15.101562 8.941406 L 15.101562 18.222656 C 15.101562 18.3125 15.070312 18.390625 15.003906 18.457031 C 14.9375 18.523438 14.859375 18.554688 14.769531 18.554688 L 5.226562 18.554688 C 5.136719 18.554688 5.058594 18.523438 4.992188 18.457031 C 4.925781 18.390625 4.894531 18.3125 4.894531 18.222656 L 4.894531 8.941406 C 4.894531 8.847656 4.925781 8.769531 4.992188 8.703125 C 5.058594 8.640625 5.136719 8.605469 5.226562 8.605469 L 14.769531 8.605469 C 14.859375 8.605469 14.9375 8.640625 15.003906 8.703125 C 15.070312 8.769531 15.101562 8.847656 15.101562 8.941406 Z M 11.226562 17.886719 L 8.90625 15.335938 L 8.90625 15.332031 L 7.78125 14.097656 C 7.722656 14.035156 7.652344 14.003906 7.566406 14.003906 C 7.480469 14.003906 7.410156 14.035156 7.351562 14.097656 L 5.5625 16.0625 L 5.5625 17.886719 Z M 14.433594 16.0625 L 11.800781 13.167969 C 11.742188 13.105469 11.671875 13.074219 11.585938 13.074219 C 11.5 13.074219 11.429688 13.105469 11.375 13.167969 L 9.605469 15.113281 L 12.128906 17.886719 L 14.433594 17.886719 Z M 14.433594 9.273438 L 5.5625 9.273438 L 5.5625 15.074219 L 6.855469 13.648438 C 6.949219 13.546875 7.054688 13.472656 7.179688 13.417969 C 7.300781 13.363281 7.429688 13.335938 7.566406 13.335938 C 7.699219 13.335938 7.828125 13.363281 7.953125 13.417969 C 8.074219 13.472656 8.183594 13.550781 8.273438 13.648438 L 9.152344 14.617188 L 10.878906 12.71875 C 10.96875 12.621094 11.078125 12.542969 11.199219 12.488281 C 11.324219 12.433594 11.453125 12.40625 11.585938 12.40625 C 11.722656 12.40625 11.851562 12.433594 11.972656 12.488281 C 12.097656 12.542969 12.203125 12.621094 12.292969 12.71875 L 14.433594 15.070312 Z M 6.476562 11.035156 C 6.476562 10.769531 6.566406 10.546875 6.753906 10.363281 C 6.9375 10.179688 7.160156 10.085938 7.421875 10.085938 C 7.683594 10.085938 7.90625 10.179688 8.09375 10.363281 C 8.277344 10.546875 8.371094 10.769531 8.371094 11.035156 C 8.371094 11.296875 8.277344 11.519531 8.09375 11.703125 C 7.90625 11.886719 7.683594 11.980469 7.421875 11.980469 C 7.160156 11.980469 6.9375 11.886719 6.753906 11.703125 C 6.566406 11.519531 6.476562 11.292969 6.476562 11.035156 Z M 7.140625 11.035156 C 7.140625 11.109375 7.167969 11.175781 7.222656 11.230469 C 7.277344 11.285156 7.34375 11.3125 7.421875 11.3125 C 7.5 11.3125 7.566406 11.285156 7.621094 11.230469 C 7.675781 11.175781 7.703125 11.109375 7.703125 11.03125 C 7.703125 10.957031 7.675781 10.890625 7.621094 10.835938 C 7.566406 10.78125 7.5 10.753906 7.421875 10.753906 C 7.34375 10.753906 7.277344 10.78125 7.222656 10.835938 C 7.167969 10.890625 7.140625 10.957031 7.140625 11.035156 Z M 7.140625 11.035156 " fill-opacity="1" fill-rule="nonzero"/></g></svg>